<svg xmlns="http://www.w3.org/2000/svg" viewBox="0 0 1809.408 294.831"><defs><style>.cls-1{fill:#3db351;}.cls-2{fill:#182b54;}.cls-3{fill:#e47862;}.cls-4,.cls-5,.cls-6{fill:none;stroke-miterlimit:10;}.cls-4,.cls-5{stroke:#197d2a;}.cls-4,.cls-6{stroke-width:13px;}.cls-5{stroke-width:12px;}.cls-6{stroke:#3db351;}.cls-7{fill:#c85e41;}.cls-8{fill:#197d2a;}</style></defs><title>CloudPonics3_transparent</title><g id="Layer_2" data-name="Layer 2"><g id="Layer_11" data-name="Layer 11"><polygon class="cls-1" points="1108.729 47.882 1140.765 50.316 1139.637 70.436 1107.192 56.59 1108.729 47.882"/><path class="cls-2" d="M14.507,178.383c0-64.293,51.435-117.707,115.4-117.707a113.258,113.258,0,0,1,90.342,44.181l-30.334,23.081C176.066,109.8,155.624,98.264,130.9,98.264c-43.193,0-75.834,36.6-75.834,80.119s31.982,79.791,75.834,79.791c24.728,0,45.17-11.541,59.018-29.674l30.334,23.08a113.265,113.265,0,0,1-90.342,44.182C65.942,295.762,14.507,242.678,14.507,178.383Z" transform="translate(-14.507 -1.958)"/><path class="cls-2" d="M248.6,291.805V54.082h38.247V291.805Z" transform="translate(-14.507 -1.958)"/><path class="cls-2" d="M319.482,214.652c0-48.8,37.917-80.779,81.769-80.779s82.1,31.981,82.1,80.779-38.247,81.11-82.1,81.11S319.482,263.449,319.482,214.652Zm125.291,0c0-26.377-19.783-45.172-43.522-45.172s-43.192,18.8-43.192,45.172c0,27.036,19.453,45.5,43.192,45.5S444.773,241.688,444.773,214.652Z" transform="translate(-14.507 -1.958)"/><path class="cls-2" d="M623.472,137.828h38.247V291.805H623.472V267.734c-7.913,19.454-32.312,28.028-47.808,28.028-39.566,0-61.656-26.707-61.656-71.549V137.828h38.246v84.736c0,24.729,14.837,37.588,31.982,37.588,17.475,0,39.236-9.892,39.236-39.9Z" transform="translate(-14.507 -1.958)"/><path class="cls-2" d="M821.621,54.082h38.247V291.805H821.621V271.361c-10.55,16.157-32.311,24.4-51.105,24.4-40.555,0-75.834-31.983-75.834-81.11,0-49.457,34.95-80.779,75.5-80.779,19.453,0,40.885,7.912,51.435,24.068Zm-.659,160.24c0-27.037-22.421-44.842-44.511-44.842-23.739,0-43.192,19.124-43.192,44.842s19.453,45.83,43.192,45.83C799.86,260.152,820.962,241.357,820.962,214.322Z" transform="translate(-14.507 -1.958)"/><path class="cls-3" d="M993.725,53.73c50.116,0,71.548,38.354,71.548,76.364,0,38.7-21.432,76.363-71.548,76.363H941.96v85.348H901.736V53.73Zm-1.978,114.717c23.739,0,33.3-19,33.3-38.353,0-18.658-9.232-38.7-32.312-38.7H941.96v77.052Z" transform="translate(-14.507 -1.958)"/><path class="cls-3" d="M1078.786,214.652c0-48.8,37.917-80.779,81.769-80.779s82.1,31.981,82.1,80.779-38.246,81.11-82.1,81.11S1078.786,263.449,1078.786,214.652Zm125.291,0c0-26.377-19.783-45.172-43.522-45.172s-43.192,18.8-43.192,45.172c0,27.036,19.453,45.5,43.192,45.5S1204.077,241.688,1204.077,214.652Z" transform="translate(-14.507 -1.958)"/><path class="cls-3" d="M1423,205.42v86.385h-38.247V208.057c0-24.729-14.837-37.916-31.982-37.916-17.474,0-39.235,10.22-39.235,39.894v81.77H1275.29V137.828h38.247v24.4c7.913-19.452,31.982-28.354,47.808-28.354C1400.91,133.873,1423,160.578,1423,205.42Z" transform="translate(-14.507 -1.958)"/><path class="cls-3" d="M1457.284,83.426c0-13.518,11.539-23.408,25.058-23.408,13.848,0,24.728,9.89,24.728,23.408,0,13.189-10.88,23.41-24.728,23.41C1468.823,106.836,1457.284,96.615,1457.284,83.426Zm5.934,208.379V137.828h38.247V291.805Z" transform="translate(-14.507 -1.958)"/><path class="cls-3" d="M1533.775,214.652c0-48.8,39.235-80.779,83.746-80.779,26.707,0,48.468,11.869,62.646,29.674l-27.037,21.432c-7.913-9.563-21.1-15.5-34.949-15.5-26.707,0-45.83,19.124-45.83,45.172,0,25.717,19.123,45.5,45.83,45.5,13.848,0,27.036-5.935,34.949-15.5l27.037,21.43c-14.178,17.805-35.939,29.676-62.646,29.676C1573.01,295.762,1533.775,263.449,1533.775,214.652Z" transform="translate(-14.507 -1.958)"/><path class="cls-3" d="M1699.285,244.326h35.938c0,10.551,9.232,20.442,25.388,20.442,15.167,0,25.058-7.584,25.058-17.475,0-8.572-6.594-12.529-18.134-15.166l-20.442-5.275c-34.62-9.233-43.522-27.7-43.522-47.149,0-24.07,23.739-45.83,57.37-45.83,27.366,0,58.359,13.848,58.029,48.137h-36.6c0-10.551-9.562-17.145-20.442-17.145-11.87,0-20.113,6.924-20.113,16.487,0,7.912,7.584,12.527,16.486,14.5l24.728,6.6c34.62,8.9,40.885,30.662,40.885,44.84,0,31.322-31.323,48.469-62.646,48.469C1730.607,295.762,1699.944,277.3,1699.285,244.326Z" transform="translate(-14.507 -1.958)"/><path class="cls-4" d="M1164.634,117.746c8.139-4.235,12.086-9.246,14.179-13.29,8.519-16.461,1.736-31.527,1.818-35.517" transform="translate(-14.507 -1.958)"/><path class="cls-5" d="M1217.117,11.393c9.981-4.015,12.566-3.83,13.278-2.828,1.24,1.744-3.372,5.462-8.318,14.356-3.325,5.98-5.218,11.979-9.03,23.96-2.2,6.914-2.934,10.149-5.961,14.517-4.262,6.15-8.554,8.03-9.757,8.515a19.666,19.666,0,0,1-8.026,1.35c-1.731-.032-10.273-.139-15.046-6.046-3.9-4.831-3.484-10.93-3.305-13.2C1172.744,29.24,1206.383,15.71,1217.117,11.393Z" transform="translate(-14.507 -1.958)"/><path class="cls-4" d="M1230.466,8.392s-34.875,20.012-44.6,36.819-4.98,24.6-4.98,24.6" transform="translate(-14.507 -1.958)"/><path class="cls-6" d="M1154.144,72.394a52.921,52.921,0,0,1,10.487,40.594c-1.671,10.686-6.853,22.9-18.316,35.932" transform="translate(-14.507 -1.958)"/><path class="cls-6" d="M1155.232,73.782s-26.911-5.444-48.97-28.23c-4.825-4.985-6.912-7.4-6.978-8.171-.235-2.769,25.3,15.324,43.86,11.561,23.758-4.817,18.979,38.552-8.9,29.924s-34.2-41.237-34.2-41.237" transform="translate(-14.507 -1.958)"/><path class="cls-3" d="M1211.964,134.112H1111.636c-20.323,17-33.471,44.058-33.471,74.56,0,40.821,23.552,75.526,56.353,88.117h54.563c32.8-12.591,56.353-47.3,56.353-88.117C1245.434,178.17,1232.287,151.108,1211.964,134.112Z" transform="translate(-14.507 -1.958)"/><path class="cls-7" d="M1211.964,134.112H1161.8V296.789h27.281c32.8-12.591,56.353-47.3,56.353-88.117C1245.434,178.17,1232.287,151.108,1211.964,134.112Z" transform="translate(-14.507 -1.958)"/><polygon class="cls-8" points="1171.229 47.382 1199.229 19.382 1206.229 28.382 1189.229 67.382 1168.229 67.382 1168.229 53.382 1171.229 47.382"/></g></g></svg>